<svg width="265" height="45" viewBox="0 0 265 45" fill="none" xmlns="http://www.w3.org/2000/svg">
<path d="M53.9334 22.96C53.9334 21.5733 54.2334 20.34 54.8334 19.26C55.4334 18.1667 56.2668 17.32 57.3334 16.72C58.4134 16.1067 59.6334 15.8 60.9934 15.8C62.6601 15.8 64.0868 16.24 65.2734 17.12C66.4601 18 67.2534 19.2 67.6534 20.72H63.8934C63.6134 20.1333 63.2134 19.6867 62.6934 19.38C62.1868 19.0733 61.6068 18.92 60.9534 18.92C59.9001 18.92 59.0468 19.2867 58.3934 20.02C57.7401 20.7533 57.4134 21.7333 57.4134 22.96C57.4134 24.1867 57.7401 25.1667 58.3934 25.9C59.0468 26.6333 59.9001 27 60.9534 27C61.6068 27 62.1868 26.8467 62.6934 26.54C63.2134 26.2333 63.6134 25.7867 63.8934 25.2H67.6534C67.2534 26.72 66.4601 27.92 65.2734 28.8C64.0868 29.6667 62.6601 30.1 60.9934 30.1C59.6334 30.1 58.4134 29.8 57.3334 29.2C56.2668 28.5867 55.4334 27.74 54.8334 26.66C54.2334 25.58 53.9334 24.3467 53.9334 22.96ZM80.7678 18.84V30H77.3478V28.48C77.0011 28.9733 76.5278 29.3733 75.9278 29.68C75.3411 29.9733 74.6878 30.12 73.9678 30.12C73.1145 30.12 72.3611 29.9333 71.7078 29.56C71.0545 29.1733 70.5478 28.62 70.1878 27.9C69.8278 27.18 69.6478 26.3333 69.6478 25.36V18.84H73.0478V24.9C73.0478 25.6467 73.2411 26.2267 73.6278 26.64C74.0145 27.0533 74.5345 27.26 75.1878 27.26C75.8545 27.26 76.3811 27.0533 76.7678 26.64C77.1545 26.2267 77.3478 25.6467 77.3478 24.9V18.84H80.7678ZM86.6444 20.7C87.0444 20.0867 87.5444 19.6067 88.1444 19.26C88.7444 18.9 89.411 18.72 90.1444 18.72V22.34H89.2044C88.351 22.34 87.711 22.5267 87.2844 22.9C86.8577 23.26 86.6444 23.9 86.6444 24.82V30H83.2244V18.84H86.6444V20.7ZM95.1991 20.7C95.5991 20.0867 96.0991 19.6067 96.6991 19.26C97.2991 18.9 97.9657 18.72 98.6991 18.72V22.34H97.7591C96.9057 22.34 96.2657 22.5267 95.8391 22.9C95.4124 23.26 95.1991 23.9 95.1991 24.82V30H91.7791V18.84H95.1991V20.7ZM110.854 24.24C110.854 24.56 110.834 24.8933 110.794 25.24H103.054C103.107 25.9333 103.327 26.4667 103.714 26.84C104.114 27.2 104.6 27.38 105.174 27.38C106.027 27.38 106.62 27.02 106.954 26.3H110.594C110.407 27.0333 110.067 27.6933 109.574 28.28C109.094 28.8667 108.487 29.3267 107.754 29.66C107.02 29.9933 106.2 30.16 105.294 30.16C104.2 30.16 103.227 29.9267 102.374 29.46C101.52 28.9933 100.854 28.3267 100.374 27.46C99.8938 26.5933 99.6538 25.58 99.6538 24.42C99.6538 23.26 99.8871 22.2467 100.354 21.38C100.834 20.5133 101.5 19.8467 102.354 19.38C103.207 18.9133 104.187 18.68 105.294 18.68C106.374 18.68 107.334 18.9067 108.174 19.36C109.014 19.8133 109.667 20.46 110.134 21.3C110.614 22.14 110.854 23.12 110.854 24.24ZM107.354 23.34C107.354 22.7533 107.154 22.2867 106.754 21.94C106.354 21.5933 105.854 21.42 105.254 21.42C104.68 21.42 104.194 21.5867 103.794 21.92C103.407 22.2533 103.167 22.7267 103.074 23.34H107.354ZM119.458 18.72C120.765 18.72 121.805 19.1467 122.578 20C123.365 20.84 123.758 22 123.758 23.48V30H120.358V23.94C120.358 23.1933 120.165 22.6133 119.778 22.2C119.391 21.7867 118.871 21.58 118.218 21.58C117.565 21.58 117.045 21.7867 116.658 22.2C116.271 22.6133 116.078 23.1933 116.078 23.94V30H112.658V18.84H116.078V20.32C116.425 19.8267 116.891 19.44 117.478 19.16C118.065 18.8667 118.725 18.72 119.458 18.72ZM125.455 24.42C125.455 23.26 125.688 22.2467 126.155 21.38C126.635 20.5133 127.295 19.8467 128.135 19.38C128.988 18.9133 129.961 18.68 131.055 18.68C132.455 18.68 133.621 19.0467 134.555 19.78C135.501 20.5133 136.121 21.5467 136.415 22.88H132.775C132.468 22.0267 131.875 21.6 130.995 21.6C130.368 21.6 129.868 21.8467 129.495 22.34C129.121 22.82 128.935 23.5133 128.935 24.42C128.935 25.3267 129.121 26.0267 129.495 26.52C129.868 27 130.368 27.24 130.995 27.24C131.875 27.24 132.468 26.8133 132.775 25.96H136.415C136.121 27.2667 135.501 28.2933 134.555 29.04C133.608 29.7867 132.441 30.16 131.055 30.16C129.961 30.16 128.988 29.9267 128.135 29.46C127.295 28.9933 126.635 28.3267 126.155 27.46C125.688 26.5933 125.455 25.58 125.455 24.42ZM149.644 18.84L142.644 35.3H138.964L141.524 29.62L136.984 18.84H140.804L143.384 25.82L145.944 18.84H149.644ZM154.539 22.96C154.539 21.5733 154.839 20.34 155.439 19.26C156.039 18.1667 156.872 17.32 157.939 16.72C159.019 16.1067 160.239 15.8 161.599 15.8C163.266 15.8 164.692 16.24 165.879 17.12C167.066 18 167.859 19.2 168.259 20.72H164.499C164.219 20.1333 163.819 19.6867 163.299 19.38C162.792 19.0733 162.212 18.92 161.559 18.92C160.506 18.92 159.652 19.2867 158.999 20.02C158.346 20.7533 158.019 21.7333 158.019 22.96C158.019 24.1867 158.346 25.1667 158.999 25.9C159.652 26.6333 160.506 27 161.559 27C162.212 27 162.792 26.8467 163.299 26.54C163.819 26.2333 164.219 25.7867 164.499 25.2H168.259C167.859 26.72 167.066 27.92 165.879 28.8C164.692 29.6667 163.266 30.1 161.599 30.1C160.239 30.1 159.019 29.8 157.939 29.2C156.872 28.5867 156.039 27.74 155.439 26.66C154.839 25.58 154.539 24.3467 154.539 22.96ZM175.433 30.16C174.34 30.16 173.353 29.9267 172.473 29.46C171.607 28.9933 170.92 28.3267 170.413 27.46C169.92 26.5933 169.673 25.58 169.673 24.42C169.673 23.2733 169.927 22.2667 170.433 21.4C170.94 20.52 171.633 19.8467 172.513 19.38C173.393 18.9133 174.38 18.68 175.473 18.68C176.567 18.68 177.553 18.9133 178.433 19.38C179.313 19.8467 180.007 20.52 180.513 21.4C181.02 22.2667 181.273 23.2733 181.273 24.42C181.273 25.5667 181.013 26.58 180.493 27.46C179.987 28.3267 179.287 28.9933 178.393 29.46C177.513 29.9267 176.527 30.16 175.433 30.16ZM175.433 27.2C176.087 27.2 176.64 26.96 177.093 26.48C177.56 26 177.793 25.3133 177.793 24.42C177.793 23.5267 177.567 22.84 177.113 22.36C176.673 21.88 176.127 21.64 175.473 21.64C174.807 21.64 174.253 21.88 173.813 22.36C173.373 22.8267 173.153 23.5133 173.153 24.42C173.153 25.3133 173.367 26 173.793 26.48C174.233 26.96 174.78 27.2 175.433 27.2ZM189.888 18.72C191.194 18.72 192.234 19.1467 193.008 20C193.794 20.84 194.188 22 194.188 23.48V30H190.788V23.94C190.788 23.1933 190.594 22.6133 190.208 22.2C189.821 21.7867 189.301 21.58 188.648 21.58C187.994 21.58 187.474 21.7867 187.088 22.2C186.701 22.6133 186.508 23.1933 186.508 23.94V30H183.088V18.84H186.508V20.32C186.854 19.8267 187.321 19.44 187.908 19.16C188.494 18.8667 189.154 18.72 189.888 18.72ZM201.584 26.8L204.004 18.84H207.644L203.684 30H199.464L195.504 18.84H199.164L201.584 26.8ZM219.604 24.24C219.604 24.56 219.584 24.8933 219.544 25.24H211.804C211.857 25.9333 212.077 26.4667 212.464 26.84C212.864 27.2 213.35 27.38 213.924 27.38C214.777 27.38 215.37 27.02 215.704 26.3H219.344C219.157 27.0333 218.817 27.6933 218.324 28.28C217.844 28.8667 217.237 29.3267 216.504 29.66C215.77 29.9933 214.95 30.16 214.044 30.16C212.95 30.16 211.977 29.9267 211.124 29.46C210.27 28.9933 209.604 28.3267 209.124 27.46C208.644 26.5933 208.404 25.58 208.404 24.42C208.404 23.26 208.637 22.2467 209.104 21.38C209.584 20.5133 210.25 19.8467 211.104 19.38C211.957 18.9133 212.937 18.68 214.044 18.68C215.124 18.68 216.084 18.9067 216.924 19.36C217.764 19.8133 218.417 20.46 218.884 21.3C219.364 22.14 219.604 23.12 219.604 24.24ZM216.104 23.34C216.104 22.7533 215.904 22.2867 215.504 21.94C215.104 21.5933 214.604 21.42 214.004 21.42C213.43 21.42 212.944 21.5867 212.544 21.92C212.157 22.2533 211.917 22.7267 211.824 23.34H216.104ZM224.828 20.7C225.228 20.0867 225.728 19.6067 226.328 19.26C226.928 18.9 227.595 18.72 228.328 18.72V22.34H227.388C226.535 22.34 225.895 22.5267 225.468 22.9C225.041 23.26 224.828 23.9 224.828 24.82V30H221.408V18.84H224.828V20.7ZM236.183 27.1V30H234.443C233.203 30 232.236 29.7 231.543 29.1C230.849 28.4867 230.503 27.4933 230.503 26.12V21.68H229.143V18.84H230.503V16.12H233.923V18.84H236.163V21.68H233.923V26.16C233.923 26.4933 234.003 26.7333 234.163 26.88C234.323 27.0267 234.589 27.1 234.963 27.1H236.183ZM248.608 24.24C248.608 24.56 248.588 24.8933 248.548 25.24H240.808C240.861 25.9333 241.081 26.4667 241.468 26.84C241.868 27.2 242.354 27.38 242.928 27.38C243.781 27.38 244.374 27.02 244.708 26.3H248.348C248.161 27.0333 247.821 27.6933 247.328 28.28C246.848 28.8667 246.241 29.3267 245.508 29.66C244.774 29.9933 243.954 30.16 243.048 30.16C241.954 30.16 240.981 29.9267 240.128 29.46C239.274 28.9933 238.608 28.3267 238.128 27.46C237.648 26.5933 237.408 25.58 237.408 24.42C237.408 23.26 237.641 22.2467 238.108 21.38C238.588 20.5133 239.254 19.8467 240.108 19.38C240.961 18.9133 241.941 18.68 243.048 18.68C244.128 18.68 245.088 18.9067 245.928 19.36C246.768 19.8133 247.421 20.46 247.888 21.3C248.368 22.14 248.608 23.12 248.608 24.24ZM245.108 23.34C245.108 22.7533 244.908 22.2867 244.508 21.94C244.108 21.5933 243.608 21.42 243.008 21.42C242.434 21.42 241.948 21.5867 241.548 21.92C241.161 22.2533 240.921 22.7267 240.828 23.34H245.108ZM253.832 20.7C254.232 20.0867 254.732 19.6067 255.332 19.26C255.932 18.9 256.599 18.72 257.332 18.72V22.34H256.392C255.539 22.34 254.899 22.5267 254.472 22.9C254.045 23.26 253.832 23.9 253.832 24.82V30H250.412V18.84H253.832V20.7Z" fill="#624D04"/>
<path d="M39.683 4.60829C39.315 4.4852 38.8808 4.42663 38.3928 4.42663C37.6261 4.42663 37.0363 4.59126 36.6376 4.91767C36.402 5.10398 36.1803 5.42265 35.9646 5.86312H40.8362C40.7885 5.25802 40.4068 4.83923 39.683 4.60829Z" fill="#735B06"/>
<path d="M30.4479 7.37368C30.9144 7.57391 31.398 7.66939 31.9061 7.66939C32.5158 7.66939 32.9901 7.55533 33.338 7.31691C33.6845 7.08442 33.9276 6.76729 34.06 6.37146H29.7119C29.7411 6.84083 29.986 7.17344 30.4479 7.37368Z" fill="#735B06"/>
<path d="M35.5505 0C29.6704 0 24.908 2.73907 24.908 6.12323C24.908 9.50739 29.6704 12.2495 35.5505 12.2495C41.4292 12.2495 46.1914 9.50739 46.1914 6.12323C46.1914 2.73907 41.4292 0 35.5505 0ZM44.0019 6.37275H42.2036C42.0867 7.40438 41.4537 8.10805 40.2959 8.47601C39.6691 8.68089 38.8302 8.78075 37.7676 8.78075V7.8353C38.616 7.8046 39.2258 7.73054 39.6167 7.60746C40.3142 7.38271 40.7054 6.97165 40.7963 6.37275H35.7492C35.4981 7.14093 35.0718 7.71222 34.4819 8.07709C33.883 8.44505 33.0652 8.6267 32.0199 8.6267C31.0775 8.6267 30.2278 8.43266 29.4779 8.03399C28.7296 7.63971 28.3446 7.0839 28.3294 6.3712H27.0962V5.86312H28.3141C28.4019 5.15946 28.7621 4.61603 29.3966 4.23414C30.0386 3.85688 30.8763 3.66129 31.9265 3.63987V4.57294C31.4522 4.599 31.0504 4.66996 30.7116 4.79459C30.0926 5.01934 29.76 5.37518 29.7308 5.86158H34.2391C34.6455 5.03947 35.0228 4.48056 35.3662 4.1833C35.9497 3.70284 36.8105 3.4657 37.9467 3.4657C39.5896 3.4657 40.7537 3.77044 41.445 4.38638C41.8284 4.72982 42.0808 5.22087 42.2041 5.86132H44.0024C44.0019 5.86158 44.0019 6.37275 44.0019 6.37275Z" fill="#735B06"/>
<path d="M35.5505 13.0688C30.1506 13.0688 25.7102 10.7563 25.0127 7.76151C24.9511 8.0309 24.908 8.30338 24.908 8.58052C24.908 11.9631 29.6704 14.7068 35.5505 14.7068C41.4292 14.7068 46.1914 11.9647 46.1914 8.58052C46.1914 8.30184 46.1468 8.0309 46.0867 7.76151C45.3892 10.7563 40.9472 13.0688 35.5505 13.0688Z" fill="#735B06"/>
<path d="M35.5505 15.5246C30.1506 15.5246 25.7102 13.212 25.0127 10.2172C24.9511 10.4866 24.908 10.7591 24.908 11.0363C24.908 14.4189 29.6704 17.1626 35.5505 17.1626C41.4292 17.1626 46.1914 14.4204 46.1914 11.0363C46.1914 10.7576 46.1468 10.4866 46.0867 10.2172C45.3892 13.212 40.9472 15.5246 35.5505 15.5246Z" fill="#735B06"/>
<path d="M35.5505 17.9819C30.1506 17.9819 25.7102 15.6693 25.0127 12.6745C24.9511 12.9439 24.908 13.2164 24.908 13.492C24.908 16.8762 29.6704 19.6183 35.5505 19.6183C41.4292 19.6183 46.1914 16.8762 46.1914 13.492C46.1914 13.2149 46.1468 12.9439 46.0867 12.6745C45.3892 15.6693 40.9472 17.9819 35.5505 17.9819Z" fill="#735B06"/>
<path d="M35.5505 20.4378C30.1506 20.4378 25.7102 18.1269 25.0127 15.1305C24.9511 15.3999 24.908 15.6724 24.908 15.9495C24.908 19.3337 29.6704 22.0759 35.5505 22.0759C41.4292 22.0759 46.1914 19.3353 46.1914 15.9495C46.1914 15.6709 46.1468 15.3999 46.0867 15.1305C45.3892 18.1266 40.9472 20.4378 35.5505 20.4378Z" fill="#735B06"/>
<path d="M35.5505 23.2569C30.1506 23.2569 25.7102 20.9444 25.0127 17.9496C24.9511 18.219 24.908 18.4915 24.908 18.7686C24.908 22.1512 29.6704 24.8949 35.5505 24.8949C41.4292 24.8949 46.1914 22.1528 46.1914 18.7686C46.1914 18.4899 46.1468 18.219 46.0867 17.9496C45.3892 20.9444 40.9472 23.2569 35.5505 23.2569Z" fill="#735B06"/>
<path d="M35.5505 25.7111C30.1506 25.7111 25.7102 23.3986 25.0127 20.4053C24.9511 20.6747 24.908 20.9472 24.908 21.2243C24.908 24.6085 29.6704 27.3507 35.5505 27.3507C41.4292 27.3507 46.1914 24.6085 46.1914 21.2243C46.1914 20.9457 46.1468 20.6747 46.0867 20.4053C45.3892 23.4001 40.9472 25.7111 35.5505 25.7111Z" fill="#735B06"/>
<path d="M35.5505 28.1699C30.1506 28.1699 25.7102 25.8559 25.0127 22.8626C24.9511 23.1305 24.908 23.4061 24.908 23.6801C24.908 27.0612 29.6704 29.8064 35.5505 29.8064C41.4292 29.8064 46.1914 27.0612 46.1914 23.6801C46.1914 23.4014 46.1468 23.132 46.0867 22.8626C45.3892 25.8559 40.9472 28.1699 35.5505 28.1699Z" fill="#735B06"/>
<path d="M35.5505 30.6257C30.1506 30.6257 25.7102 28.3131 25.0127 25.3215C24.9511 25.5893 24.908 25.8618 24.908 26.1374C24.908 29.52 29.6704 32.2637 35.5505 32.2637C41.4292 32.2637 46.1914 29.52 46.1914 26.1374C46.1914 25.8587 46.1468 25.5893 46.0867 25.3215C45.3892 28.3131 40.9472 30.6257 35.5505 30.6257Z" fill="#735B06"/>
<path d="M14.7782 27.0877C14.4087 26.9662 13.976 26.9076 13.4865 26.9076C12.7211 26.9076 12.1315 27.0722 11.7328 27.3987C11.4957 27.585 11.2755 27.9005 11.0598 28.3426H15.9314C15.8806 27.7375 15.4989 27.3171 14.7782 27.0877Z" fill="#735B06"/>
<path d="M5.54299 29.8529C6.00954 30.0531 6.49311 30.147 7.0012 30.147C7.61096 30.147 8.0837 30.0345 8.43309 29.7961C8.77964 29.5636 9.02272 29.2449 9.15509 28.8506H4.80396C4.83621 29.3187 5.078 29.6542 5.54299 29.8529Z" fill="#735B06"/>
<path d="M10.641 22.481C4.76091 22.481 0 25.2185 0 28.6027C0 31.9884 4.76091 34.729 10.641 34.729C16.521 34.729 21.2835 31.9884 21.2835 28.6027C21.2835 25.2185 16.5213 22.481 10.641 22.481ZM19.0924 28.8537H17.2941C17.1785 29.8823 16.5458 30.5859 15.3879 30.9555C14.7612 31.1603 13.9223 31.2586 12.8581 31.2586V30.3147C13.7065 30.284 14.3163 30.21 14.7072 30.0869C15.4063 29.8621 15.799 29.4511 15.8867 28.8537H10.8412C10.5901 29.6204 10.1623 30.1917 9.57395 30.555C8.97503 30.9245 8.15729 31.1046 7.11041 31.1046C6.16803 31.1046 5.31984 30.909 4.56996 30.5119C3.82008 30.1163 3.43508 29.5618 3.41986 28.8491H2.18796V28.341H3.40438C3.49521 27.6373 3.85389 27.0924 4.48842 26.712C5.12888 26.3332 5.96804 26.1392 7.01673 26.1178V27.0493C6.544 27.0753 6.13913 27.1448 5.80186 27.2709C5.18436 27.4957 4.85175 27.8515 4.82104 28.3364H9.33242C9.73729 27.5158 10.1146 26.9569 10.458 26.6581C11.0399 26.1776 11.9023 25.9405 13.0372 25.9405C14.6817 25.9405 15.8457 26.2452 16.537 26.8627C16.9189 27.2077 17.1713 27.6988 17.2946 28.3361H19.0929V28.8537H19.0924Z" fill="#735B06"/>
<path d="M10.641 35.548C5.24113 35.548 0.802259 33.2339 0.104766 30.2407C0.0415451 30.5088 0 30.7813 0 31.0584C0 34.441 4.76091 37.1847 10.641 37.1847C16.521 37.1847 21.2835 34.4426 21.2835 31.0584C21.2835 30.7782 21.2388 30.5088 21.1787 30.2409C20.4828 33.2339 16.0392 35.548 10.641 35.548Z" fill="#735B06"/>
<path d="M10.641 38.004C5.24113 38.004 0.802259 35.6915 0.104766 32.6982C0.0415451 32.9645 0 33.2386 0 33.5157C0 36.8983 4.76091 39.642 10.641 39.642C16.521 39.642 21.2835 36.8998 21.2835 33.5157C21.2835 33.237 21.2388 32.9661 21.1787 32.6982C20.4828 35.6912 16.0392 38.004 10.641 38.004Z" fill="#735B06"/>
<path d="M10.641 40.4628C5.24113 40.4628 0.802259 38.1503 0.104766 35.1555C0.0415451 35.4234 0 35.6958 0 35.973C0 39.3556 4.76091 42.0993 10.641 42.0993C16.521 42.0993 21.2835 39.3571 21.2835 35.973C21.2835 35.6943 21.2388 35.4249 21.1787 35.1555C20.4828 38.15 16.0392 40.4628 10.641 40.4628Z" fill="#735B06"/>
<path d="M10.641 42.917C5.24113 42.917 0.802259 40.6029 0.104766 37.6097C0.0415451 37.8776 0 38.1531 0 38.429C0 41.8116 4.76091 44.5553 10.641 44.5553C16.521 44.5553 21.2835 41.8131 21.2835 38.429C21.2835 38.1487 21.2388 37.8778 21.1787 37.61C20.4828 40.6029 16.0392 42.917 10.641 42.917Z" fill="#735B06"/>
<path d="M14.7782 8.17565C14.4087 8.05257 13.976 7.994 13.488 7.994C12.7214 7.994 12.1315 8.15862 11.7328 8.48504C11.4972 8.67134 11.2755 8.99002 11.0598 9.43049H15.9314C15.8806 8.82565 15.4989 8.40531 14.7782 8.17565Z" fill="#735B06"/>
<path d="M5.54299 10.941C6.00954 11.1397 6.49466 11.2368 7.0012 11.2368C7.61096 11.2368 8.08524 11.1227 8.43309 10.8843C8.78119 10.6518 9.02272 10.3347 9.15509 9.93883H4.80396C4.83621 10.4066 5.078 10.7408 5.54299 10.941Z" fill="#735B06"/>
<path d="M10.641 3.56763C4.76246 3.56763 0 6.30669 0 9.69085C0 13.075 4.76246 15.8172 10.641 15.8172C16.521 15.8172 21.2835 13.075 21.2835 9.69085C21.2835 6.30669 16.5213 3.56763 10.641 3.56763ZM19.0955 9.93883H17.2941C17.1785 10.9705 16.5458 11.6726 15.3879 12.0421C14.7612 12.2454 13.9223 12.3468 12.8581 12.3468V11.4014C13.7065 11.3707 14.3163 11.2966 14.7072 11.1735C15.4063 10.9488 15.799 10.5377 15.8867 9.93883H10.8412C10.5901 10.707 10.1654 11.2783 9.57395 11.6432C8.97658 12.0111 8.15729 12.1928 7.11041 12.1928C6.16803 12.1928 5.31984 11.9972 4.56996 11.6001C3.82008 11.2058 3.43508 10.65 3.41986 9.93728H2.18796V9.4292H3.40438C3.49521 8.72554 3.85389 8.18211 4.48842 7.80021C5.12888 7.42296 5.96959 7.22737 7.01673 7.20595V8.13902C6.544 8.16353 6.13913 8.23604 5.80186 8.36067C5.18436 8.58542 4.85175 8.94125 4.82104 9.42766H9.33242C9.73884 8.60555 10.1146 8.04664 10.458 7.74783C11.0399 7.26892 11.9023 7.03178 13.0372 7.03178C14.6817 7.03178 15.8457 7.33652 16.537 7.95246C16.9189 8.2959 17.1713 8.78695 17.2946 9.4274H19.096L19.0955 9.93883Z" fill="#735B06"/>
<path d="M10.641 16.6346C5.24423 16.6346 0.802259 14.3221 0.104766 11.3273C0.0446416 11.597 0 11.8695 0 12.1466C0 15.5292 4.76246 18.2729 10.641 18.2729C16.521 18.2729 21.2835 15.5308 21.2835 12.1466C21.2835 11.8679 21.2404 11.597 21.1787 11.3276C20.4828 14.3221 16.0408 16.6346 10.641 16.6346Z" fill="#735B06"/>
<path d="M10.641 19.0922C5.24423 19.0922 0.802259 16.7797 0.104766 13.7849C0.0446416 14.0543 0 14.3268 0 14.6023C0 17.9865 4.76246 20.7287 10.641 20.7287C16.521 20.7287 21.2835 17.9865 21.2835 14.6023C21.2835 14.3252 21.2404 14.0543 21.1787 13.7849C20.4828 16.7794 16.0408 19.0922 10.641 19.0922Z" fill="#735B06"/>
</svg>
